<svg viewBox="0 0 24 24" xmlns="http://www.w3.org/2000/svg" width="24" height="24"><path d="M17.484 12c.844 0 1.5-.656 1.5-1.5s-.656-1.5-1.5-1.5-1.5.656-1.5 1.5.656 1.5 1.5 1.5zm-3-3.984c.844 0 1.5-.656 1.5-1.5s-.656-1.5-1.5-1.5-1.5.656-1.5 1.5.656 1.5 1.5 1.5zm-4.968 0c.844 0 1.5-.656 1.5-1.5s-.656-1.5-1.5-1.5-1.5.656-1.5 1.5.656 1.5 1.5 1.5zm-3 3.984c.844 0 1.5-.656 1.5-1.5S7.36 9 6.516 9s-1.5.656-1.5 1.5.656 1.5 1.5 1.5zM12 3c4.969 0 9 3.609 9 8.016 0 2.766-2.25 4.969-5.016 4.969H14.25c-.844 0-1.5.656-1.5 1.5 0 .375.141.703.375.984s.375.656.375 1.031c0 .844-.656 1.5-1.5 1.5-4.969 0-9-4.031-9-9s4.031-9 9-9z" fill="#ffffff" class="fill-000000"></path></svg>