<?xml version="1.0" standalone="no"?>
<!DOCTYPE svg PUBLIC "-//W3C//DTD SVG 20010904//EN"
 "http://www.w3.org/TR/2001/REC-SVG-20010904/DTD/svg10.dtd">
<svg version="1.0" xmlns="http://www.w3.org/2000/svg"
 width="512.000000pt" height="512.000000pt" viewBox="0 0 512.000000 512.000000"
 preserveAspectRatio="xMidYMid meet">
<metadata>
Created by potrace 1.16, written by Peter Selinger 2001-2019
</metadata>
<g transform="translate(0.000000,512.000000) scale(0.100000,-0.100000)"
fill="#000000" stroke="none">
<path d="M1595 4485 l-950 -423 0 -788 c0 -776 0 -791 23 -918 70 -397 204
-742 413 -1061 346 -527 831 -899 1382 -1060 l98 -29 82 24 c883 249 1604
1069 1791 2039 45 230 47 285 44 1060 l-3 733 -954 424 c-524 233 -959 424
-965 423 -6 0 -438 -191 -961 -424z m1715 -384 l735 -328 3 -544 c2 -336 -1
-588 -8 -659 -61 -654 -427 -1288 -967 -1676 -108 -79 -309 -182 -425 -220
l-88 -28 -84 27 c-601 196 -1159 848 -1341 1567 -58 227 -60 263 -60 924 l0
609 735 328 c404 180 742 328 750 328 8 0 346 -147 750 -328z"/>
<path d="M2402 3610 c-201 -53 -374 -211 -426 -389 -12 -42 -16 -100 -16 -246
l0 -192 -61 -17 c-49 -13 -71 -27 -113 -69 -88 -88 -88 -85 -84 -579 l3 -423
27 -50 c33 -62 80 -108 138 -134 44 -20 63 -21 681 -21 706 0 689 -2 768 66
23 20 53 57 69 82 l27 47 0 440 0 440 -28 57 c-36 74 -95 125 -169 145 l-58
16 0 192 c0 212 -8 258 -63 355 -42 75 -149 177 -235 223 -140 75 -310 96
-460 57z m280 -266 c71 -23 132 -75 164 -141 27 -55 28 -64 32 -240 l4 -183
-322 0 -322 0 4 183 c4 176 5 186 31 240 67 137 236 195 409 141z"/>
</g>
</svg>
